<svg xmlns="http://www.w3.org/2000/svg" xmlns:xlink="http://www.w3.org/1999/xlink" width="128" height="128" viewBox="0 0 128 128">
  <defs>
    <linearGradient id="linear-gradient" x1="0.5" x2="0.5" y2="1" gradientUnits="objectBoundingBox">
      <stop offset="0" stop-color="#29b9b9"/>
      <stop offset="1" stop-color="#50b6e2"/>
    </linearGradient>
    <clipPath id="clip-icon">
      <rect width="128" height="128"/>
    </clipPath>
  </defs>
  <g id="icon" clip-path="url(#clip-icon)">
    <rect width="128" height="128" fill="rgba(255,255,255,0)"/>
    <rect id="Rectangle_1" data-name="Rectangle 1" width="128" height="128" rx="24" fill="url(#linear-gradient)"/>
    <g id="Component_2_8" data-name="Component 2 – 8" transform="translate(25 9)">
      <path id="Path_48" data-name="Path 48" d="M633.019,66.862V64.924a9.689,9.689,0,0,0-6.561-9.165L623.327,52,620.2,55.759a9.688,9.688,0,0,0-6.561,9.165v1.938l-6.461,7.754h6.462v6.462h19.385V74.616h6.461Zm-9.692,1.292a3.231,3.231,0,1,1,3.231-3.231h0A3.231,3.231,0,0,1,623.327,68.155Z" transform="translate(-555.481 -52.001)" fill="#fff"/>
      <path id="Path_49" data-name="Path 49" d="M637.447,369.239A57.52,57.52,0,0,1,626.6,400.4c9.588-5.994,16.349-17.585,17.285-31.166Z" transform="translate(-572.926 -336.932)" fill="#fff"/>
      <path id="Path_50" data-name="Path 50" d="M343.934,369.239c-1.245,19.022-13.378,34.414-29.02,37.422,10.092-8.5,16.895-22.011,17.735-37.422h-4.057c-1.422,23.471-18.18,42-38.66,42,0,0,9.334,1.97,24.1,0,18.644-3.133,32.522-18.529,33.944-42Z" transform="translate(-270.547 -336.932)" fill="#fff"/>
      <path id="Path_51" data-name="Path 51" d="M170.664,257.7v20.769a3.23,3.23,0,0,1-3.23,3.231H109.279a3.231,3.231,0,0,1-3.231-3.231V220.311a3.231,3.231,0,0,1,3.231-3.231H144.92l5.384-6.462H106.049a6.462,6.462,0,0,0-6.462,6.462V281.7a6.461,6.461,0,0,0,6.461,6.462h64.616a6.461,6.461,0,0,0,6.462-6.461h0V246.833A51.95,51.95,0,0,1,170.664,257.7Z" transform="translate(-99.587 -194.465)" fill="#fff"/>
    </g>
  </g>
</svg>
